GSerif01-AuthorTextRegular03.ufo
<glyph name="hyphen" format="1">
  <advance width="450"/>
  <unicode hex="002D"/>
  <outline>
    <contour>
      <point x="83" y="326" type="line"/>
      <point x="83" y="264" type="line"/>
      <point x="368" y="264" type="line"/>
      <point x="368" y="326" type="line"/>
    </contour>
  </outline>
</glyph>
<glyph name="E" format="1">
  <advance width="641"/>
  <unicode hex="0045"/>
  <outline>
    <contour>
      <point x="138" y="0" type="line"/>
      <point x="243" y="0" type="line"/>
      <point x="243" y="710" type="line"/>
      <point x="138" y="710" type="line"/>
    </contour>
    <contour>
      <point x="208" y="386" type="line"/>
      <point x="208" y="341" type="line"/>
      <point x="449" y="341" type="line"/>
      <point x="449" y="386" type="line"/>
    </contour>
    <contour>
      <point x="577" y="710" type="line"/>
      <point x="48" y="710" type="line"/>
      <point x="48" y="671" type="line"/>
      <point x="57" y="671" type="line" smooth="yes"/>
      <point x="101" y="670"/>
      <point x="138" y="664"/>
      <point x="138" y="635" type="curve"/>
      <point x="197" y="665" type="line"/>
      <point x="387" y="665" type="line" smooth="yes"/>
      <point x="474" y="665"/>
      <point x="509" y="654"/>
      <point x="516" y="614" type="curve" smooth="yes"/>
      <point x="533" y="520" type="line"/>
      <point x="577" y="520" type="line"/>
    </contour>
    <contour>
      <point x="590" y="215" type="line"/>
      <point x="546" y="215" type="line"/>
      <point x="527" y="101" type="line" smooth="yes"/>
      <point x="520" y="59"/>
      <point x="483" y="45"/>
      <point x="386" y="45" type="curve" smooth="yes"/>
      <point x="205" y="45" type="line"/>
      <point x="138" y="75" type="line"/>
      <point x="138" y="46"/>
      <point x="101" y="39"/>
      <point x="57" y="39" type="curve" smooth="yes"/>
      <point x="48" y="39" type="line"/>
      <point x="48" y="0" type="line"/>
      <point x="590" y="0" type="line"/>
    </contour>
  </outline>
</glyph>
<glyph name="G" format="1">
  <advance width="760"/>
  <unicode hex="0047"/>
  <outline>
    <contour>
      <point x="168" y="355" type="curve" smooth="yes"/>
      <point x="168" y="547"/>
      <point x="267" y="674"/>
      <point x="409" y="674" type="curve" smooth="yes"/>
      <point x="502" y="674"/>
      <point x="566" y="625"/>
      <point x="591" y="567" type="curve"/>
      <point x="599" y="604"/>
      <point x="577" y="632"/>
      <point x="549" y="631" type="curve"/>
      <point x="549" y="508" type="line"/>
      <point x="657" y="508" type="line"/>
      <point x="657" y="608" type="line"/>
      <point x="624" y="659"/>
      <point x="537" y="720"/>
      <point x="408" y="720" type="curve" smooth="yes"/>
      <point x="206" y="720"/>
      <point x="53" y="569"/>
      <point x="53" y="355" type="curve" smooth="yes"/>
      <point x="53" y="137"/>
      <point x="190" y="-10"/>
      <point x="403" y="-10" type="curve" smooth="yes"/>
      <point x="520" y="-10"/>
      <point x="627" y="59"/>
      <point x="667" y="118" type="curve"/>
      <point x="667" y="303" type="line"/>
      <point x="565" y="311" type="line"/>
      <point x="565" y="112" type="line"/>
      <point x="544" y="90"/>
      <point x="489" y="38"/>
      <point x="405" y="38" type="curve" smooth="yes"/>
      <point x="254" y="38"/>
      <point x="168" y="160"/>
    </contour>
    <contour>
      <point x="667" y="269" type="line"/>
      <point x="667" y="298"/>
      <point x="701" y="305"/>
      <point x="734" y="305" type="curve" smooth="yes"/>
      <point x="739" y="305" type="line"/>
      <point x="739" y="341" type="line"/>
      <point x="474" y="341" type="line"/>
      <point x="474" y="305" type="line"/>
      <point x="481" y="305" type="line" smooth="yes"/>
      <point x="528" y="305"/>
      <point x="565" y="298"/>
      <point x="565" y="269" type="curve"/>
    </contour>
  </outline>
</glyph>
<glyph name="P" format="1">
  <advance width="684"/>
  <unicode hex="0050"/>
  <outline>
    <contour>
      <point x="136" y="0" type="line"/>
      <point x="242" y="0" type="line"/>
      <point x="242" y="710" type="line"/>
      <point x="136" y="710" type="line"/>
    </contour>
    <contour>
      <point x="46" y="0" type="line"/>
      <point x="342" y="0" type="line"/>
      <point x="342" y="39" type="line"/>
      <point x="325" y="39" type="line"/>
      <point x="296" y="39"/>
      <point x="242" y="42"/>
      <point x="242" y="62" type="curve"/>
      <point x="136" y="75" type="line"/>
      <point x="136" y="46"/>
      <point x="99" y="39"/>
      <point x="55" y="39" type="curve" smooth="yes"/>
      <point x="46" y="39" type="line"/>
    </contour>
    <contour>
      <point x="46" y="710" type="line"/>
      <point x="46" y="671" type="line"/>
      <point x="55" y="671" type="line" smooth="yes"/>
      <point x="99" y="671"/>
      <point x="136" y="664"/>
      <point x="136" y="635" type="curve"/>
      <point x="189" y="665" type="line"/>
      <point x="354" y="665" type="line" smooth="yes"/>
      <point x="459" y="665"/>
      <point x="513" y="609"/>
      <point x="513" y="505" type="curve"/>
      <point x="513" y="403"/>
      <point x="459" y="339"/>
      <point x="348" y="339" type="curve" smooth="yes"/>
      <point x="192" y="339" type="line"/>
      <point x="192" y="295" type="line"/>
      <point x="354" y="295" type="line" smooth="yes"/>
      <point x="521" y="295"/>
      <point x="623" y="380"/>
      <point x="623" y="507" type="curve"/>
      <point x="623" y="634"/>
      <point x="525" y="710"/>
      <point x="360" y="710" type="curve" smooth="yes"/>
    </contour>
  </outline>
</glyph>
<glyph name="Y" format="1">
  <advance width="688"/>
  <unicode hex="0059"/>
  <outline>
    <contour>
      <point x="298" y="0" type="line"/>
      <point x="404" y="0" type="line"/>
      <point x="404" y="326" type="line"/>
      <point x="298" y="325" type="line"/>
    </contour>
    <contour>
      <point x="621" y="703" type="line"/>
      <point x="568" y="710" type="line"/>
      <point x="353" y="312" type="line"/>
      <point x="389" y="334" type="line"/>
      <point x="173" y="710" type="line"/>
      <point x="68" y="704" type="line"/>
      <point x="316" y="275" type="line"/>
      <point x="383" y="269" type="line"/>
    </contour>
    <contour>
      <point x="652" y="710" type="line"/>
      <point x="435" y="710" type="line"/>
      <point x="435" y="671" type="line"/>
      <point x="456" y="671" type="line" smooth="yes"/>
      <point x="503" y="671"/>
      <point x="533" y="655"/>
      <point x="533" y="647" type="curve"/>
      <point x="572" y="615" type="line"/>
      <point x="593" y="652"/>
      <point x="603" y="671"/>
      <point x="639" y="671" type="curve" smooth="yes"/>
      <point x="652" y="671" type="line"/>
    </contour>
    <contour>
      <point x="38" y="710" type="line"/>
      <point x="38" y="671" type="line"/>
      <point x="50" y="671" type="line" smooth="yes"/>
      <point x="81" y="671"/>
      <point x="91" y="665"/>
      <point x="107" y="637" type="curve"/>
      <point x="204" y="657" type="line"/>
      <point x="204" y="666"/>
      <point x="249" y="671"/>
      <point x="287" y="671" type="curve" smooth="yes"/>
      <point x="300" y="671" type="line"/>
      <point x="300" y="710" type="line"/>
    </contour>
    <contour>
      <point x="170" y="0" type="line"/>
      <point x="530" y="0" type="line"/>
      <point x="530" y="39" type="line"/>
      <point x="485" y="39" type="line" smooth="yes"/>
      <point x="441" y="39"/>
      <point x="404" y="46"/>
      <point x="404" y="75" type="curve"/>
      <point x="298" y="75" type="line"/>
      <point x="298" y="46"/>
      <point x="261" y="39"/>
      <point x="217" y="39" type="curve" smooth="yes"/>
      <point x="170" y="39" type="line"/>
    </contour>
  </outline>
</glyph>
<glyph name="g" format="1">
  <advance width="648"/>
  <unicode hex="0067"/>
  <outline>
    <contour>
      <point x="300" y="-260" type="curve" smooth="yes"/>
      <point x="339" y="-260" type="line" smooth="yes"/>
      <point x="489" y="-260"/>
      <point x="616" y="-194"/>
      <point x="616" y="-72" type="curve" smooth="yes"/>
      <point x="616" y="18"/>
      <point x="554" y="61"/>
      <point x="435" y="61" type="curve" smooth="yes"/>
      <point x="232" y="61" type="line" smooth="yes"/>
      <point x="180" y="61"/>
      <point x="151" y="73"/>
      <point x="151" y="108" type="curve" smooth="yes"/>
      <point x="151" y="144"/>
      <point x="178" y="173"/>
      <point x="224" y="197" type="curve"/>
      <point x="240" y="219"/>
      <point x="203" y="239"/>
      <point x="188" y="215" type="curve"/>
      <point x="115" y="179"/>
      <point x="79" y="133"/>
      <point x="79" y="79" type="curve" smooth="yes"/>
      <point x="79" y="42"/>
      <point x="97" y="4"/>
      <point x="144" y="-17" type="curve"/>
      <point x="140" y="-23"/>
      <point x="134" y="-22"/>
      <point x="137" y="-31" type="curve"/>
      <point x="429" y="-31" type="line" smooth="yes"/>
      <point x="511" y="-31"/>
      <point x="535" y="-53"/>
      <point x="535" y="-97" type="curve" smooth="yes"/>
      <point x="535" y="-166"/>
      <point x="455" y="-215"/>
      <point x="338" y="-215" type="curve" smooth="yes"/>
      <point x="301" y="-215" type="line" smooth="yes"/>
      <point x="176" y="-215"/>
      <point x="118" y="-174"/>
      <point x="118" y="-117" type="curve" smooth="yes"/>
      <point x="118" y="-77"/>
      <point x="133" y="-41"/>
      <point x="183" y="-15" type="curve"/>
      <point x="159" y="6" type="line"/>
      <point x="80" y="-29"/>
      <point x="42" y="-67"/>
      <point x="42" y="-120" type="curve"/>
      <point x="42" y="-216"/>
      <point x="158" y="-260"/>
    </contour>
    <contour>
      <point x="197" y="358" type="curve" smooth="yes"/>
      <point x="197" y="451"/>
      <point x="244" y="506"/>
      <point x="314" y="506" type="curve" smooth="yes"/>
      <point x="385" y="506"/>
      <point x="432" y="451"/>
      <point x="432" y="358" type="curve" smooth="yes"/>
      <point x="432" y="265"/>
      <point x="384" y="214"/>
      <point x="314" y="214" type="curve" smooth="yes"/>
      <point x="244" y="214"/>
      <point x="197" y="265"/>
    </contour>
    <contour>
      <point x="314" y="170" type="curve" smooth="yes"/>
      <point x="438" y="170"/>
      <point x="531" y="244"/>
      <point x="531" y="359" type="curve" smooth="yes"/>
      <point x="531" y="472"/>
      <point x="439" y="550"/>
      <point x="314" y="550" type="curve" smooth="yes"/>
      <point x="189" y="550"/>
      <point x="98" y="472"/>
      <point x="98" y="359" type="curve" smooth="yes"/>
      <point x="98" y="244"/>
      <point x="189" y="170"/>
    </contour>
    <contour>
      <point x="626" y="464" type="curve"/>
      <point x="626" y="551" type="line"/>
      <point x="573" y="557"/>
      <point x="505" y="530"/>
      <point x="460" y="464" type="curve"/>
      <point x="460" y="463"/>
      <point x="486" y="439"/>
      <point x="487" y="441" type="curve"/>
      <point x="513" y="467"/>
      <point x="563" y="470"/>
    </contour>
  </outline>
</glyph>
<glyph name="j" format="1">
  <advance width="347"/>
  <unicode hex="006A"/>
  <outline>
    <contour>
      <point x="194" y="632" type="curve" smooth="yes"/>
      <point x="233" y="632"/>
      <point x="261" y="656"/>
      <point x="261" y="696" type="curve" smooth="yes"/>
      <point x="261" y="734"/>
      <point x="233" y="759"/>
      <point x="194" y="759" type="curve" smooth="yes"/>
      <point x="155" y="759"/>
      <point x="127" y="734"/>
      <point x="127" y="696" type="curve" smooth="yes"/>
      <point x="127" y="656"/>
      <point x="155" y="632"/>
    </contour>
    <contour>
      <point x="246" y="-46" type="curve" smooth="yes"/>
      <point x="246" y="540" type="line"/>
      <point x="30" y="540" type="line"/>
      <point x="30" y="501" type="line"/>
      <point x="64" y="499" type="line" smooth="yes"/>
      <point x="122" y="495"/>
      <point x="146" y="483"/>
      <point x="146" y="454" type="curve" smooth="yes"/>
      <point x="146" y="-53" type="line" smooth="yes"/>
      <point x="146" y="-150"/>
      <point x="106" y="-194"/>
      <point x="54" y="-194" type="curve" smooth="yes"/>
      <point x="30" y="-194"/>
      <point x="10" y="-189"/>
      <point x="-4" y="-186" type="curve"/>
      <point x="-4" y="-235" type="line"/>
      <point x="13" y="-239"/>
      <point x="38" y="-241"/>
      <point x="59" y="-241" type="curve" smooth="yes"/>
      <point x="139" y="-241"/>
      <point x="246" y="-199"/>
    </contour>
  </outline>
</glyph>
<glyph name="l" format="1">
  <advance width="406"/>
  <unicode hex="006C"/>
  <outline>
    <contour>
      <point x="43" y="750" type="line"/>
      <point x="43" y="708" type="line"/>
      <point x="80" y="706" type="line" smooth="yes"/>
      <point x="141" y="703"/>
      <point x="165" y="690"/>
      <point x="165" y="661" type="curve" smooth="yes"/>
      <point x="165" y="0" type="line"/>
      <point x="266" y="0" type="line"/>
      <point x="266" y="750" type="line"/>
    </contour>
    <contour>
      <point x="388" y="0" type="line"/>
      <point x="388" y="37" type="line"/>
      <point x="370" y="37" type="line"/>
      <point x="304" y="37"/>
      <point x="266" y="44"/>
      <point x="266" y="73" type="curve"/>
      <point x="165" y="73" type="line"/>
      <point x="165" y="44"/>
      <point x="127" y="37"/>
      <point x="61" y="37" type="curve"/>
      <point x="43" y="37" type="line"/>
      <point x="43" y="0" type="line"/>
    </contour>
  </outline>
</glyph>
<glyph name="w" format="1">
  <advance width="894"/>
  <unicode hex="0077"/>
  <outline>
    <contour>
      <point x="289" y="0" type="line"/>
      <point x="303" y="40" type="line"/>
      <point x="164" y="540" type="line"/>
      <point x="64" y="540" type="line"/>
      <point x="223" y="0" type="line"/>
    </contour>
    <contour>
      <point x="253" y="540" type="line"/>
      <point x="15" y="540" type="line"/>
      <point x="15" y="504" type="line"/>
      <point x="17" y="504" type="line"/>
      <point x="55" y="504"/>
      <point x="76" y="498"/>
      <point x="85" y="467" type="curve"/>
      <point x="177" y="493" type="line"/>
      <point x="177" y="500"/>
      <point x="227" y="504"/>
      <point x="245" y="504" type="curve"/>
      <point x="253" y="504" type="line"/>
    </contour>
    <contour>
      <point x="678" y="0" type="line"/>
      <point x="832" y="540" type="line"/>
      <point x="774" y="540" type="line"/>
      <point x="634" y="32" type="line"/>
      <point x="644" y="0" type="line"/>
    </contour>
    <contour>
      <point x="685" y="540" type="line"/>
      <point x="685" y="504" type="line"/>
      <point x="694" y="504" type="line"/>
      <point x="723" y="504"/>
      <point x="759" y="498"/>
      <point x="759" y="485" type="curve"/>
      <point x="808" y="457" type="line"/>
      <point x="818" y="488"/>
      <point x="835" y="504"/>
      <point x="877" y="504" type="curve"/>
      <point x="879" y="504" type="line"/>
      <point x="879" y="540" type="line"/>
    </contour>
    <contour>
      <point x="426" y="540" type="line"/>
      <point x="269" y="32" type="line"/>
      <point x="276" y="0" type="line"/>
      <point x="312" y="0" type="line"/>
      <point x="470" y="512" type="line"/>
      <point x="432" y="512" type="line"/>
      <point x="591" y="0" type="line"/>
      <point x="656" y="0" type="line"/>
      <point x="670" y="41" type="line"/>
      <point x="516" y="540" type="line"/>
    </contour>
  </outline>
</glyph>
<glyph name="z" format="1">
  <advance width="530"/>
  <unicode hex="007A"/>
  <outline>
    <contour>
      <point x="100" y="44" type="line"/>
      <point x="131" y="29" type="line"/>
      <point x="478" y="490" type="line"/>
      <point x="478" y="540" type="line"/>
      <point x="50" y="540" type="line"/>
      <point x="50" y="375" type="line"/>
      <point x="95" y="375" type="line"/>
      <point x="111" y="448" type="line" smooth="yes"/>
      <point x="119" y="488"/>
      <point x="148" y="497"/>
      <point x="215" y="497" type="curve" smooth="yes"/>
      <point x="410" y="497" type="line"/>
      <point x="384" y="511" type="line"/>
      <point x="36" y="54" type="line"/>
      <point x="36" y="0" type="line"/>
      <point x="488" y="0" type="line"/>
      <point x="488" y="173" type="line"/>
      <point x="440" y="173" type="line"/>
      <point x="425" y="91" type="line" smooth="yes"/>
      <point x="418" y="53"/>
      <point x="389" y="44"/>
      <point x="321" y="44" type="curve" smooth="yes"/>
    </contour>
  </outline>
</glyph>
<glyph name="F.alt" format="1">
  <advance width="607"/>
  <outline>
    <contour>
      <point x="138" y="0" type="line"/>
      <point x="244" y="0" type="line"/>
      <point x="244" y="710" type="line"/>
      <point x="138" y="710" type="line"/>
    </contour>
    <contour>
      <point x="48" y="710" type="line"/>
      <point x="48" y="668" type="line"/>
      <point x="57" y="668" type="line" smooth="yes"/>
      <point x="101" y="668"/>
      <point x="138" y="661"/>
      <point x="138" y="632" type="curve"/>
      <point x="195" y="665" type="line"/>
      <point x="379" y="665" type="line" smooth="yes"/>
      <point x="467" y="665"/>
      <point x="502" y="654"/>
      <point x="508" y="614" type="curve" smooth="yes"/>
      <point x="523" y="520" type="line"/>
      <point x="567" y="520" type="line"/>
      <point x="567" y="710" type="line"/>
    </contour>
    <contour>
      <point x="48" y="0" type="line"/>
      <point x="348" y="0" type="line"/>
      <point x="348" y="42" type="line"/>
      <point x="333" y="42" type="line" smooth="yes"/>
      <point x="292" y="42"/>
      <point x="244" y="45"/>
      <point x="244" y="69" type="curve"/>
      <point x="138" y="78" type="line"/>
      <point x="138" y="49"/>
      <point x="101" y="42"/>
      <point x="57" y="42" type="curve" smooth="yes"/>
      <point x="48" y="42" type="line"/>
    </contour>
    <contour>
      <point x="229" y="375" type="line"/>
      <point x="229" y="330" type="line"/>
      <point x="447" y="330" type="line"/>
      <point x="444" y="375" type="line"/>
    </contour>
    <contour>
      <point x="470" y="259" type="line"/>
      <point x="470" y="447" type="line"/>
      <point x="432" y="447" type="line"/>
      <point x="432" y="441" type="line"/>
      <point x="432" y="405"/>
      <point x="422" y="375"/>
      <point x="393" y="375" type="curve"/>
      <point x="393" y="330" type="line"/>
      <point x="422" y="330"/>
      <point x="432" y="300"/>
      <point x="432" y="265" type="curve"/>
      <point x="432" y="259" type="line"/>
    </contour>
  </outline>
</glyph>
<glyph name="J.alt" format="1">
  <advance width="636"/>
  <outline>
    <contour>
      <point x="481" y="635" type="line"/>
      <point x="481" y="664"/>
      <point x="519" y="671"/>
      <point x="562" y="671" type="curve" smooth="yes"/>
      <point x="594" y="671" type="line"/>
      <point x="594" y="710" type="line"/>
      <point x="240" y="710" type="line"/>
      <point x="240" y="671" type="line"/>
      <point x="291" y="671" type="line" smooth="yes"/>
      <point x="338" y="671"/>
      <point x="375" y="664"/>
      <point x="375" y="635" type="curve"/>
    </contour>
    <contour>
      <point x="253" y="34" type="curve"/>
      <point x="191" y="34"/>
      <point x="140" y="57"/>
      <point x="124" y="91" type="curve"/>
      <point x="93" y="129"/>
      <point x="104" y="62"/>
      <point x="150" y="49" type="curve"/>
      <point x="150" y="164" type="line"/>
      <point x="46" y="164" type="line"/>
      <point x="46" y="62" type="line"/>
      <point x="83" y="22"/>
      <point x="158" y="-10"/>
      <point x="254" y="-10" type="curve"/>
      <point x="385" y="-10"/>
      <point x="481" y="55"/>
      <point x="481" y="221" type="curve" smooth="yes"/>
      <point x="481" y="710" type="line"/>
      <point x="375" y="710" type="line"/>
      <point x="375" y="214" type="line" smooth="yes"/>
      <point x="375" y="70"/>
      <point x="327" y="34"/>
    </contour>
  </outline>
</glyph>
<glyph name="Q.alt" format="1">
  <advance width="754"/>
  <outline>
    <contour>
      <point x="362" y="214" type="line"/>
      <point x="470" y="57"/>
      <point x="542" y="8"/>
      <point x="747" y="2" type="curve"/>
      <point x="747" y="80" type="line"/>
      <point x="564" y="78"/>
      <point x="503" y="89"/>
      <point x="401" y="238" type="curve"/>
    </contour>
    <contour>
      <point x="377" y="-10" type="curve" smooth="yes"/>
      <point x="565" y="-10"/>
      <point x="701" y="135"/>
      <point x="701" y="355" type="curve" smooth="yes"/>
      <point x="701" y="574"/>
      <point x="565" y="720"/>
      <point x="377" y="720" type="curve" smooth="yes"/>
      <point x="188" y="720"/>
      <point x="53" y="575"/>
      <point x="53" y="355" type="curve" smooth="yes"/>
      <point x="53" y="136"/>
      <point x="188" y="-10"/>
    </contour>
    <contour>
      <point x="377" y="34" type="curve" smooth="yes"/>
      <point x="249" y="34"/>
      <point x="169" y="154"/>
      <point x="169" y="355" type="curve" smooth="yes"/>
      <point x="169" y="556"/>
      <point x="249" y="676"/>
      <point x="377" y="676" type="curve" smooth="yes"/>
      <point x="507" y="676"/>
      <point x="585" y="556"/>
      <point x="585" y="355" type="curve" smooth="yes"/>
      <point x="585" y="142"/>
      <point x="507" y="34"/>
    </contour>
  </outline>
</glyph>
<glyph name="Q.alt4" format="1">
  <advance width="754"/>
  <outline>
    <contour>
      <point x="377" y="-10" type="curve" smooth="yes"/>
      <point x="565" y="-10"/>
      <point x="701" y="135"/>
      <point x="701" y="355" type="curve" smooth="yes"/>
      <point x="701" y="574"/>
      <point x="565" y="720"/>
      <point x="377" y="720" type="curve" smooth="yes"/>
      <point x="188" y="720"/>
      <point x="53" y="575"/>
      <point x="53" y="355" type="curve" smooth="yes"/>
      <point x="53" y="136"/>
      <point x="188" y="-10"/>
    </contour>
    <contour>
      <point x="377" y="34" type="curve" smooth="yes"/>
      <point x="249" y="34"/>
      <point x="169" y="154"/>
      <point x="169" y="355" type="curve" smooth="yes"/>
      <point x="169" y="556"/>
      <point x="249" y="676"/>
      <point x="377" y="676" type="curve" smooth="yes"/>
      <point x="507" y="676"/>
      <point x="585" y="556"/>
      <point x="585" y="355" type="curve" smooth="yes"/>
      <point x="585" y="154"/>
      <point x="507" y="34"/>
    </contour>
    <contour>
      <point x="353" y="-6" type="line"/>
      <point x="345" y="-132"/>
      <point x="441" y="-188"/>
      <point x="564" y="-188" type="curve" smooth="yes"/>
      <point x="602" y="-188"/>
      <point x="647" y="-182"/>
      <point x="691" y="-173" type="curve"/>
      <point x="691" y="-74" type="line"/>
      <point x="643" y="-89"/>
      <point x="601" y="-103"/>
      <point x="537" y="-103" type="curve" smooth="yes"/>
      <point x="456" y="-103"/>
      <point x="397" y="-78"/>
      <point x="403" y="10" type="curve"/>
    </contour>
  </outline>
</glyph>
<glyph name="five.alt" format="1">
  <advance width="619"/>
  <outline>
    <contour>
      <point x="175" y="427" type="line"/>
      <point x="193" y="669" type="line"/>
      <point x="168" y="641" type="line"/>
      <point x="538" y="641" type="line"/>
      <point x="538" y="720" type="line"/>
      <point x="137" y="720" type="line"/>
      <point x="115" y="439" type="line"/>
      <point x="115" y="404" type="line"/>
      <point x="218" y="391" type="line" smooth="yes"/>
      <point x="374" y="371"/>
      <point x="466" y="325"/>
      <point x="466" y="207" type="curve" smooth="yes"/>
      <point x="466" y="93"/>
      <point x="400" y="45"/>
      <point x="318" y="45" type="curve" smooth="yes"/>
      <point x="230" y="45"/>
      <point x="169" y="92"/>
      <point x="153" y="207" type="curve"/>
      <point x="44" y="207" type="line"/>
      <point x="61" y="62"/>
      <point x="172" y="-10"/>
      <point x="318" y="-10" type="curve" smooth="yes"/>
      <point x="461" y="-10"/>
      <point x="574" y="65"/>
      <point x="574" y="208" type="curve" smooth="yes"/>
      <point x="574" y="347"/>
      <point x="459" y="413"/>
      <point x="256" y="441" type="curve" smooth="yes"/>
      <point x="145" y="456" type="line"/>
    </contour>
  </outline>
</glyph>
<glyph name="four.old" format="1">
  <advance width="612"/>
  <outline>
    <contour>
      <point x="249" y="-132" type="line"/>
      <point x="249" y="-182" type="line"/>
      <point x="584" y="-182" type="line"/>
      <point x="584" y="-132" type="line"/>
      <point x="468" y="-132" type="line"/>
      <point x="468" y="-132" type="line"/>
      <point x="365" y="-132" type="line"/>
      <point x="365" y="-132" type="line"/>
    </contour>
    <contour>
      <point x="365" y="528" type="line"/>
      <point x="365" y="-182" type="line"/>
      <point x="468" y="-182" type="line"/>
      <point x="468" y="528" type="line"/>
    </contour>
    <contour>
      <point x="27" y="4" type="line"/>
      <point x="594" y="4" type="line"/>
      <point x="594" y="53" type="line"/>
      <point x="59" y="53" type="line"/>
      <point x="67" y="23" type="line"/>
      <point x="396" y="494" type="line"/>
      <point x="428" y="528" type="line"/>
      <point x="358" y="528" type="line"/>
      <point x="27" y="52" type="line"/>
    </contour>
  </outline>
</glyph>
<glyph name="g.alt" format="1">
  <advance width="631"/>
  <outline>
    <contour>
      <point x="152" y="283" type="curve" smooth="yes"/>
      <point x="152" y="413"/>
      <point x="199" y="497"/>
      <point x="291" y="497" type="curve" smooth="yes"/>
      <point x="368" y="497"/>
      <point x="424" y="454"/>
      <point x="467" y="361" type="curve"/>
      <point x="468" y="361"/>
      <point x="501" y="375"/>
      <point x="502" y="375" type="curve"/>
      <point x="441" y="499"/>
      <point x="382" y="550"/>
      <point x="284" y="550" type="curve" smooth="yes"/>
      <point x="137" y="550"/>
      <point x="46" y="438"/>
      <point x="46" y="283" type="curve" smooth="yes"/>
      <point x="46" y="126"/>
      <point x="135" y="19"/>
      <point x="276" y="19" type="curve" smooth="yes"/>
      <point x="376" y="19"/>
      <point x="430" y="82"/>
      <point x="500" y="204" type="curve"/>
      <point x="499" y="204"/>
      <point x="468" y="222"/>
      <point x="468" y="222" type="curve"/>
      <point x="423" y="129"/>
      <point x="367" y="72"/>
      <point x="288" y="72" type="curve" smooth="yes"/>
      <point x="198" y="72"/>
      <point x="152" y="154"/>
    </contour>
    <contour>
      <point x="542" y="-26" type="curve" smooth="yes"/>
      <point x="542" y="546" type="line"/>
      <point x="494" y="546" type="line"/>
      <point x="448" y="435" type="line"/>
      <point x="442" y="418" type="line"/>
      <point x="442" y="-32" type="line" smooth="yes"/>
      <point x="442" y="-133"/>
      <point x="373" y="-181"/>
      <point x="287" y="-181" type="curve" smooth="yes"/>
      <point x="214" y="-181"/>
      <point x="154" y="-158"/>
      <point x="133" y="-98" type="curve"/>
      <point x="123" y="-129"/>
      <point x="136" y="-147"/>
      <point x="162" y="-146" type="curve"/>
      <point x="162" y="-66" type="line"/>
      <point x="64" y="-66" type="line"/>
      <point x="64" y="-145" type="line"/>
      <point x="100" y="-195"/>
      <point x="189" y="-230"/>
      <point x="287" y="-230" type="curve" smooth="yes"/>
      <point x="413" y="-230"/>
      <point x="542" y="-178"/>
    </contour>
  </outline>
</glyph>
<glyph name="three.old" format="1">
  <advance width="617"/>
  <outline>
    <contour>
      <point x="340" y="196" type="line"/>
      <point x="477" y="196"/>
      <point x="568" y="134"/>
      <point x="568" y="18" type="curve" smooth="yes"/>
      <point x="568" y="-123"/>
      <point x="451" y="-193"/>
      <point x="314" y="-193" type="curve" smooth="yes"/>
      <point x="169" y="-193"/>
      <point x="63" y="-121"/>
      <point x="46" y="25" type="curve"/>
      <point x="155" y="25" type="line"/>
      <point x="167" y="-92"/>
      <point x="224" y="-140"/>
      <point x="312" y="-140" type="curve" smooth="yes"/>
      <point x="395" y="-140"/>
      <point x="461" y="-94"/>
      <point x="461" y="19" type="curve" smooth="yes"/>
      <point x="461" y="131"/>
      <point x="399" y="163"/>
      <point x="303" y="163" type="curve" smooth="yes"/>
      <point x="222" y="163" type="line"/>
      <point x="222" y="210" type="line"/>
      <point x="292" y="210" type="line" smooth="yes"/>
      <point x="381" y="210"/>
      <point x="430" y="264"/>
      <point x="430" y="355" type="curve" smooth="yes"/>
      <point x="430" y="440"/>
      <point x="392" y="484"/>
      <point x="320" y="484" type="curve" smooth="yes"/>
      <point x="239" y="484"/>
      <point x="196" y="427"/>
      <point x="185" y="328" type="curve"/>
      <point x="78" y="328" type="line"/>
      <point x="95" y="456"/>
      <point x="187" y="537"/>
      <point x="321" y="537" type="curve" smooth="yes"/>
      <point x="452" y="537"/>
      <point x="532" y="467"/>
      <point x="532" y="358" type="curve" smooth="yes"/>
      <point x="532" y="254"/>
      <point x="448" y="188"/>
      <point x="317" y="188" type="curve"/>
    </contour>
  </outline>
</glyph>
<glyph name="two.alt" format="1">
  <advance width="602"/>
  <outline>
    <contour>
      <point x="79" y="32" type="curve"/>
      <point x="88" y="46"/>
      <point x="95" y="66"/>
      <point x="104" y="79" type="curve"/>
      <point x="502" y="79" type="line"/>
      <point x="502" y="79" type="line"/>
      <point x="502" y="207" type="line"/>
      <point x="557" y="207" type="line"/>
      <point x="557" y="0" type="line"/>
      <point x="32" y="0" type="line"/>
      <point x="32" y="57" type="line"/>
      <point x="261" y="224"/>
      <point x="413" y="362"/>
      <point x="413" y="531" type="curve" smooth="yes"/>
      <point x="413" y="615"/>
      <point x="365" y="666"/>
      <point x="297" y="666" type="curve" smooth="yes"/>
      <point x="213" y="666"/>
      <point x="174" y="607"/>
      <point x="154" y="510" type="curve"/>
      <point x="46" y="510" type="line"/>
      <point x="69" y="636"/>
      <point x="157" y="720"/>
      <point x="298" y="720" type="curve" smooth="yes"/>
      <point x="433" y="720"/>
      <point x="521" y="646"/>
      <point x="521" y="530" type="curve" smooth="yes"/>
      <point x="521" y="363"/>
      <point x="321" y="203"/>
    </contour>
  </outline>
</glyph>
<glyph name="two.old" format="1">
  <advance width="607"/>
  <outline>
    <contour>
      <point x="130" y="21" type="line"/>
      <point x="108" y="79" type="line"/>
      <point x="485" y="79" type="line"/>
      <point x="485" y="79" type="line"/>
      <point x="485" y="191" type="line"/>
      <point x="539" y="191" type="line"/>
      <point x="539" y="0" type="line"/>
      <point x="67" y="0" type="line"/>
      <point x="67" y="51" type="line" smooth="yes"/>
      <point x="67" y="278"/>
      <point x="412" y="182"/>
      <point x="412" y="389" type="curve" smooth="yes"/>
      <point x="412" y="449"/>
      <point x="372" y="485"/>
      <point x="309" y="485" type="curve" smooth="yes"/>
      <point x="230" y="485"/>
      <point x="194" y="433"/>
      <point x="180" y="347" type="curve"/>
      <point x="76" y="347" type="line"/>
      <point x="94" y="460"/>
      <point x="182" y="537"/>
      <point x="311" y="537" type="curve" smooth="yes"/>
      <point x="436" y="537"/>
      <point x="518" y="472"/>
      <point x="518" y="380" type="curve" smooth="yes"/>
      <point x="518" y="150"/>
      <point x="130" y="245"/>
      <point x="130" y="62" type="curve" smooth="yes"/>
    </contour>
  </outline>
</glyph>
<glyph name="zero.old" format="1">
  <advance width="644"/>
  <outline>
    <contour>
      <point x="322" y="537" type="curve"/>
      <point x="166" y="537"/>
      <point x="41" y="423"/>
      <point x="41" y="263" type="curve" smooth="yes"/>
      <point x="41" y="103"/>
      <point x="166" y="-12"/>
      <point x="322" y="-12" type="curve"/>
      <point x="477" y="-12"/>
      <point x="603" y="103"/>
      <point x="603" y="262" type="curve" smooth="yes"/>
      <point x="603" y="422"/>
      <point x="477" y="537"/>
    </contour>
    <contour>
      <point x="322" y="482" type="curve"/>
      <point x="423" y="482"/>
      <point x="496" y="395"/>
      <point x="496" y="262" type="curve" smooth="yes"/>
      <point x="496" y="129"/>
      <point x="423" y="43"/>
      <point x="322" y="43" type="curve"/>
      <point x="220" y="43"/>
      <point x="148" y="130"/>
      <point x="148" y="263" type="curve" smooth="yes"/>
      <point x="148" y="396"/>
      <point x="220" y="482"/>
    </contour>
  </outline>
</glyph>
